<?xml version="1.0" standalone="no"?>
<!DOCTYPE svg PUBLIC "-//W3C//DTD SVG 20010904//EN"
 "http://www.w3.org/TR/2001/REC-SVG-20010904/DTD/svg10.dtd">
<svg version="1.0" xmlns="http://www.w3.org/2000/svg"
 width="500.000000pt" height="500.000000pt" viewBox="0 0 500.000000 500.000000"
 preserveAspectRatio="xMidYMid meet">

<g transform="translate(0.000000,500.000000) scale(0.100000,-0.100000)"
fill="#000000" stroke="none">
<path d="M1890 4784 c-153 -33 -309 -148 -378 -280 -31 -59 -33 -61 -87 -73
-145 -33 -295 -149 -366 -284 l-36 -69 -84 -3 c-156 -6 -296 -71 -399 -183
-65 -70 -122 -178 -140 -262 l-11 -55 -72 -34 c-51 -24 -93 -55 -143 -105
-216 -215 -231 -533 -38 -779 38 -49 135 -132 176 -151 11 -5 11 -7 0 -12 -41
-19 -138 -102 -176 -150 -193 -246 -179 -559 34 -775 57 -58 93 -85 147 -110
l72 -34 11 -55 c17 -83 75 -192 140 -262 103 -112 243 -177 399 -183 l84 -3
36 -69 c71 -135 221 -251 366 -284 54 -12 56 -14 87 -73 64 -121 201 -230 343
-272 88 -26 240 -24 325 5 182 63 314 200 376 391 16 49 18 105 22 493 l3 437
252 0 252 0 223 -223 222 -222 0 -106 0 -106 -47 -18 c-65 -25 -145 -103 -173
-168 -17 -38 -23 -72 -23 -125 0 -63 4 -81 34 -139 59 -117 173 -181 304 -171
111 9 206 72 256 170 31 60 38 177 14 249 -23 68 -109 157 -177 183 l-46 18
-4 134 -3 134 -260 260 -260 260 -282 0 -283 0 0 155 0 154 33 6 c17 3 161 5
319 3 l288 -3 135 -135 135 -135 110 -3 109 -4 24 -52 c32 -69 75 -116 139
-152 48 -26 62 -29 148 -29 86 0 100 3 148 29 138 77 199 236 148 386 -26 76
-110 160 -186 186 -174 59 -346 -24 -409 -198 -10 -27 -12 -28 -93 -28 l-82 0
-136 135 -137 135 -356 0 -355 0 -13 38 c-23 73 -72 156 -120 207 -27 29 -49
55 -49 58 0 4 449 7 998 7 l997 0 18 -48 c23 -67 86 -135 155 -169 78 -38 192
-39 267 -3 64 31 131 98 158 158 30 66 30 188 0 253 -30 66 -86 124 -151 156
-48 24 -70 28 -137 28 -133 0 -228 -61 -286 -181 l-30 -64 -990 0 c-544 0
-989 3 -989 6 0 3 21 29 46 57 49 54 93 134 114 205 l13 42 345 0 346 0 161
160 162 161 67 -3 68 -3 19 -49 c24 -63 97 -138 163 -168 75 -33 182 -32 256
3 198 94 246 347 95 502 -62 64 -127 91 -220 91 -66 1 -90 -4 -137 -26 -86
-40 -142 -105 -172 -200 -5 -16 -19 -18 -103 -18 l-98 0 -155 -155 -155 -155
-312 0 -313 0 0 155 0 155 283 0 282 0 260 260 260 260 5 137 5 136 45 15 c62
21 151 111 173 176 10 28 17 80 17 121 0 121 -65 221 -180 280 -56 29 -173 32
-241 6 -179 -68 -258 -283 -163 -448 31 -54 104 -118 160 -139 l44 -17 0 -106
0 -106 -223 -223 -222 -222 -252 0 -252 0 -3 433 c-4 382 -6 438 -22 487 -72
222 -243 375 -457 409 -82 14 -129 13 -209 -5z m247 -142 c117 -37 202 -112
261 -231 l37 -75 3 -685 c4 -720 2 -748 -41 -840 -11 -24 -45 -70 -75 -102
-143 -155 -373 -184 -551 -69 -52 34 -92 77 -154 164 -22 32 -68 35 -97 6 -37
-37 -23 -79 61 -180 l50 -61 -573 3 -574 3 -79 39 c-105 52 -174 121 -222 223
-33 68 -38 89 -41 169 -7 148 33 250 137 347 40 38 99 77 114 77 3 0 10 -21
17 -47 18 -74 77 -177 135 -238 45 -46 59 -55 89 -55 25 0 39 6 50 22 27 38
19 64 -34 120 -97 101 -142 231 -121 347 27 143 111 255 239 318 76 38 76 38
207 38 71 0 135 4 142 8 6 4 19 31 27 61 19 65 84 165 134 206 20 17 64 44 97
61 l60 30 6 -83 c11 -144 40 -226 115 -329 39 -54 74 -68 110 -44 41 26 41 60
1 118 -74 108 -103 218 -86 332 11 68 53 162 98 216 40 48 129 108 193 130 70
24 188 25 265 1z m1564 -66 c21 -14 46 -44 58 -68 67 -138 -49 -283 -204 -254
-43 8 -103 59 -121 103 -41 96 14 212 114 244 42 13 112 1 153 -25z m409
-1157 c58 -33 85 -82 85 -154 0 -49 -5 -69 -25 -97 -63 -93 -183 -109 -267
-35 -82 72 -85 186 -5 260 61 58 138 67 212 26z m622 -739 c44 -13 93 -52 113
-91 21 -40 19 -122 -5 -169 -75 -147 -303 -110 -334 55 -15 79 40 172 119 200
49 17 60 18 107 5z m-3129 -282 c-47 -49 -103 -139 -103 -165 0 -58 84 -85
117 -37 59 84 99 128 146 159 141 96 334 100 472 10 102 -66 172 -164 195
-271 7 -33 10 -283 8 -740 l-3 -690 -37 -75 c-84 -171 -229 -256 -418 -247
-74 3 -98 9 -154 37 -173 85 -274 273 -245 453 12 75 37 134 86 205 40 58 40
92 -1 118 -36 24 -71 10 -110 -44 -71 -97 -106 -197 -115 -329 l-6 -83 -60 30
c-33 17 -77 44 -97 61 -50 41 -115 141 -134 206 -8 30 -21 57 -27 61 -7 4 -71
8 -142 8 -131 0 -131 0 -207 38 -125 61 -212 175 -240 313 -22 111 27 253 122
352 53 56 61 82 34 120 -11 16 -25 22 -50 22 -30 0 -44 -9 -89 -55 -58 -61
-117 -164 -135 -237 -7 -27 -14 -48 -17 -48 -15 0 -74 39 -114 77 -104 97
-144 199 -137 347 3 80 8 101 41 169 48 101 118 172 218 220 40 19 85 37 99
40 14 2 275 5 579 6 l555 1 -31 -32z m2521 -462 c101 -77 99 -224 -5 -293 -34
-22 -54 -28 -99 -28 -188 0 -247 250 -79 338 51 27 136 19 183 -17z m-427
-1202 c62 -46 92 -119 78 -191 -9 -50 -76 -117 -133 -132 -80 -22 -165 17
-201 92 -41 85 -16 179 61 230 38 25 50 28 105 25 43 -3 71 -10 90 -24z"/>
<path d="M1436 3524 c-174 -42 -343 -201 -396 -372 -11 -35 -20 -75 -20 -88 0
-53 78 -85 112 -46 9 9 19 33 23 52 21 102 119 232 213 283 156 85 331 70 477
-39 67 -50 92 -54 123 -21 34 36 28 65 -25 114 -120 112 -329 160 -507 117z"/>
<path d="M1045 1968 c-25 -20 -27 -25 -21 -72 3 -30 23 -87 47 -136 154 -311
539 -412 827 -217 87 60 106 91 81 135 -24 44 -67 41 -132 -7 -96 -73 -137
-86 -267 -86 -109 0 -119 2 -183 32 -116 55 -221 185 -243 301 -6 32 -45 72
-69 72 -7 0 -25 -10 -40 -22z"/>
</g>
</svg>
