<?xml version="1.0" standalone="no"?>
<!DOCTYPE svg PUBLIC "-//W3C//DTD SVG 20010904//EN"
 "http://www.w3.org/TR/2001/REC-SVG-20010904/DTD/svg10.dtd">
<svg version="1.0" xmlns="http://www.w3.org/2000/svg"
 width="500.000000pt" height="500.000000pt" viewBox="0 0 500.000000 500.000000"
 preserveAspectRatio="xMidYMid meet">

<g transform="translate(0.000000,500.000000) scale(0.100000,-0.100000)"
fill="#000000" stroke="none">
<path d="M1555 4990 c-44 -17 -50 -37 -53 -182 l-4 -138 541 0 541 0 0 138
c-1 148 -5 163 -54 182 -33 12 -941 13 -971 0z"/>
<path d="M1504 4487 c-2 -7 -3 -62 -2 -123 l3 -109 538 -3 537 -2 0 125 0 125
-535 0 c-433 0 -537 -3 -541 -13z"/>
<path d="M43 4318 c-35 -17 -43 -60 -43 -234 l0 -164 665 0 665 0 0 179 c0
161 -2 181 -19 202 l-19 24 -614 2 c-420 1 -620 -1 -635 -9z"/>
<path d="M3800 4303 c-281 -72 -1139 -305 -1163 -315 -15 -6 -34 -23 -42 -37
-13 -24 -14 -21 -15 52 l0 77 -540 0 -540 0 2 -1537 3 -1538 537 -3 538 -2 2
1456 3 1455 59 -228 c33 -125 62 -231 65 -235 3 -4 139 28 301 72 162 43 475
126 695 185 219 58 401 108 404 110 2 3 -24 109 -58 237 -80 304 -73 298 -251
251z"/>
<path d="M0 2375 l0 -1375 665 0 665 0 0 1375 0 1375 -665 0 -665 0 0 -1375z
m1057 1101 l28 -24 0 -366 0 -366 -28 -27 -27 -28 -366 0 -366 0 -24 28 -24
28 0 365 0 365 25 24 24 25 365 0 365 0 28 -24z"/>
<path d="M3865 3569 c-159 -42 -472 -125 -695 -184 -223 -59 -408 -109 -411
-111 -6 -3 28 -154 36 -162 5 -6 1393 363 1402 372 3 3 -36 159 -41 162 0 0
-131 -34 -291 -77z"/>
<path d="M3995 3249 c-115 -32 -419 -113 -675 -180 -256 -67 -469 -125 -473
-129 -5 -4 66 -290 157 -636 90 -346 197 -755 236 -909 40 -154 73 -281 74
-282 1 -2 243 62 537 141 294 79 606 163 694 186 88 24 163 46 167 49 5 4 -78
333 -183 731 -104 399 -211 807 -236 908 -41 166 -47 182 -67 181 -11 -1 -115
-28 -231 -60z"/>
<path d="M4380 1219 c-201 -55 -511 -138 -690 -185 -179 -48 -326 -88 -328
-89 -3 -2 78 -325 83 -333 3 -4 1394 365 1403 373 6 6 -84 329 -93 331 -5 1
-174 -43 -375 -97z"/>
<path d="M0 750 l0 -80 665 0 665 0 0 80 0 80 -665 0 -665 0 0 -80z"/>
<path d="M1500 750 l0 -80 540 0 540 0 0 80 0 80 -540 0 -540 0 0 -80z"/>
<path d="M4640 749 c-118 -33 -422 -114 -675 -180 -253 -67 -463 -124 -467
-128 -8 -8 89 -379 107 -407 8 -12 25 -24 39 -28 18 -4 159 29 434 103 224 60
504 135 622 165 118 31 230 63 248 71 60 27 60 47 1 268 -47 178 -54 197 -73
196 -12 0 -118 -28 -236 -60z"/>
<path d="M2 275 c3 -218 4 -225 26 -247 l23 -23 587 -3 c323 -2 602 0 620 3
17 3 41 16 52 27 19 20 20 36 20 245 l0 223 -666 0 -665 0 3 -225z"/>
<path d="M1504 486 c-3 -7 -4 -108 -2 -224 3 -205 4 -212 26 -234 l23 -23 462
-3 c254 -2 477 0 495 3 17 3 41 16 52 27 19 20 20 36 20 245 l0 223 -535 0
c-444 0 -537 -2 -541 -14z"/>
</g>
</svg>
