<?xml version="1.0" standalone="no"?>
<!DOCTYPE svg PUBLIC "-//W3C//DTD SVG 20010904//EN"
 "http://www.w3.org/TR/2001/REC-SVG-20010904/DTD/svg10.dtd">
<svg version="1.0" xmlns="http://www.w3.org/2000/svg"
 width="50.000000pt" height="50.000000pt" viewBox="0 0 50.000000 50.000000"
 preserveAspectRatio="xMidYMid meet">

<g transform="translate(0.000000,50.000000) scale(0.100000,-0.100000)"
fill="#000000" stroke="none">
<path d="M56 444 c-24 -23 -24 -365 0 -388 23 -24 365 -24 388 0 24 23 24 365
0 388 -23 24 -365 24 -388 0z m379 -194 l0 -185 -185 0 -185 0 -3 175 c-1 96
0 180 3 187 3 11 44 13 187 11 l183 -3 0 -185z"/>
<path d="M194 376 c-86 -38 -84 -216 2 -252 19 -8 46 -14 61 -14 38 0 91 34
98 63 7 26 -9 77 -25 77 -5 0 -16 16 -25 36 -13 32 -17 35 -51 32 -50 -4 -57
-26 -8 -24 21 1 39 -4 41 -11 3 -9 -6 -13 -25 -13 -47 0 -79 -49 -50 -78 28
-28 86 -7 100 38 4 11 9 8 18 -12 39 -82 -112 -124 -160 -45 -38 62 -18 167
36 187 51 20 85 12 121 -26 38 -41 57 -38 26 4 -38 51 -96 65 -159 38z m96
-135 c0 -25 -14 -41 -36 -41 -28 0 -44 28 -23 41 18 12 59 11 59 0z"/>
</g>
</svg>
