<?xml version="1.0" standalone="no"?>
<!DOCTYPE svg PUBLIC "-//W3C//DTD SVG 20010904//EN"
 "http://www.w3.org/TR/2001/REC-SVG-20010904/DTD/svg10.dtd">
<svg version="1.0" xmlns="http://www.w3.org/2000/svg"
 width="50.000000pt" height="50.000000pt" viewBox="0 0 50.000000 50.000000"
 preserveAspectRatio="xMidYMid meet">

<g transform="translate(0.000000,50.000000) scale(0.100000,-0.100000)"
fill="#000000" stroke="none">
<path d="M56 444 c-24 -23 -24 -365 0 -388 23 -24 365 -24 388 0 24 23 24 365
0 388 -23 24 -365 24 -388 0z m379 -194 l0 -185 -185 0 -185 0 -3 175 c-1 96
0 180 3 187 3 11 44 13 187 11 l183 -3 0 -185z"/>
<path d="M250 291 c0 -87 -3 -111 -16 -122 -11 -9 -20 -10 -32 -2 -24 15 -21
46 6 58 15 7 22 18 22 39 0 27 -2 28 -32 22 -18 -3 -43 -17 -55 -32 -76 -85
47 -205 133 -130 24 20 28 32 32 89 l4 65 34 -5 c32 -5 34 -4 34 23 0 22 -8
33 -31 47 -17 9 -33 26 -36 37 -4 14 -14 20 -34 20 l-29 0 0 -109z m58 59 c13
-16 29 -30 37 -30 8 0 15 -7 15 -15 0 -8 -6 -15 -14 -15 -7 0 -19 7 -26 15
-23 28 -30 15 -30 -60 0 -67 -3 -79 -25 -100 -13 -14 -36 -25 -50 -25 -33 0
-75 42 -75 75 0 26 39 75 60 75 17 0 11 -19 -9 -30 -25 -13 -35 -44 -22 -69
16 -28 48 -35 76 -17 24 16 25 21 25 121 0 58 4 105 8 105 5 0 18 -13 30 -30z"/>
</g>
</svg>
