<?xml version="1.0" standalone="no"?>
<!DOCTYPE svg PUBLIC "-//W3C//DTD SVG 20010904//EN"
 "http://www.w3.org/TR/2001/REC-SVG-20010904/DTD/svg10.dtd">
<svg version="1.0" xmlns="http://www.w3.org/2000/svg"
 width="500.000000pt" height="500.000000pt" viewBox="0 0 500.000000 500.000000"
 preserveAspectRatio="xMidYMid meet">

<g transform="translate(0.000000,500.000000) scale(0.100000,-0.100000)"
fill="#000000" stroke="none">
<path d="M2945 4511 c-58 -35 -70 -58 -70 -126 0 -54 4 -67 25 -90 33 -35 57
-48 105 -54 l40 -6 3 -69 c2 -38 -1 -73 -5 -77 -4 -4 -55 -15 -113 -24 -599
-88 -1106 -462 -1370 -1009 -303 -627 -212 -1377 231 -1921 392 -482 1016
-731 1632 -650 407 53 764 232 1054 526 539 546 674 1351 343 2045 -69 145
-127 237 -226 360 -241 298 -570 510 -940 608 -81 21 -271 56 -306 56 -5 0 -8
36 -8 80 l0 80 31 0 c42 0 102 35 123 72 10 16 18 49 19 74 0 51 -21 86 -73
122 -32 21 -41 22 -249 22 -193 0 -219 -2 -246 -19z m577 -785 c266 -62 498
-189 697 -381 178 -171 303 -368 381 -602 56 -169 74 -278 74 -463 0 -309 -79
-571 -247 -823 -228 -341 -563 -563 -972 -643 -124 -25 -394 -25 -523 -1 -472
89 -869 389 -1073 812 -93 194 -132 336 -149 542 -27 338 69 683 271 973 72
103 265 293 370 362 168 113 365 196 544 231 125 25 129 25 330 22 161 -3 206
-7 297 -29z"/>
<path d="M2985 3453 c-16 -3 -64 -13 -105 -24 -272 -73 -517 -249 -680 -488
-89 -131 -177 -359 -183 -471 l-2 -45 96 -5 c106 -6 138 -19 165 -73 24 -44
22 -111 -2 -144 -43 -57 -69 -68 -171 -71 l-95 -4 7 -51 c30 -220 156 -461
334 -638 178 -177 384 -289 612 -332 l77 -14 4 91 c4 103 23 147 76 179 40 23
109 22 150 -3 49 -30 72 -88 72 -187 l0 -82 33 5 c173 31 399 125 522 219 88
67 190 169 257 259 102 136 194 354 214 506 l7 50 -82 0 c-95 0 -136 14 -174
59 -34 41 -38 120 -8 165 36 54 67 66 169 66 l92 0 0 29 c0 103 -99 356 -197
504 -62 93 -207 238 -306 305 -137 94 -336 175 -478 196 l-47 7 -4 -95 c-4
-103 -15 -128 -72 -170 -38 -29 -114 -29 -153 0 -50 37 -67 79 -71 176 -3 57
-8 87 -16 87 -6 -1 -24 -4 -41 -6z m274 -663 c27 -13 46 -33 60 -63 19 -39 21
-61 21 -218 l0 -174 141 -140 c77 -77 147 -152 155 -167 32 -61 7 -152 -51
-188 -41 -25 -120 -27 -156 -2 -33 22 -345 337 -366 369 -14 21 -16 61 -16
263 1 226 2 241 22 273 40 64 119 84 190 47z"/>
<path d="M370 3149 c-90 -36 -121 -140 -65 -225 35 -53 49 -55 400 -52 l324 3
31 30 c56 54 64 142 18 200 -41 52 -62 55 -385 54 -172 0 -309 -4 -323 -10z"/>
<path d="M69 2527 c-95 -63 -86 -203 15 -251 30 -14 89 -16 473 -16 397 0 441
2 472 18 100 50 106 186 12 249 l-34 23 -452 0 -452 0 -34 -23z"/>
<path d="M382 1942 c-12 -4 -38 -19 -57 -35 -87 -70 -53 -218 58 -248 24 -6
150 -9 330 -7 328 3 335 5 376 78 39 70 19 151 -48 192 -35 22 -43 23 -336 25
-165 1 -310 -2 -323 -5z"/>
</g>
</svg>
